<?xml version="1.0" standalone="no"?>
<!DOCTYPE svg PUBLIC "-//W3C//DTD SVG 20010904//EN"
 "http://www.w3.org/TR/2001/REC-SVG-20010904/DTD/svg10.dtd">
<svg version="1.0" xmlns="http://www.w3.org/2000/svg"
 width="300.000000pt" height="115.000000pt" viewBox="0 0 300.000000 115.000000"
 preserveAspectRatio="xMidYMid meet">
<metadata>
Created by potrace 1.10, written by Peter Selinger 2001-2011
</metadata>
<g transform="translate(0.000000,115.000000) scale(0.100000,-0.100000)"
fill="#000000" stroke="none">
<path d="M527 950 c-9 -6 -20 -9 -25 -7 -4 2 -20 -4 -37 -14 -16 -10 -41 -24
-55 -30 -14 -5 -36 -20 -49 -32 -37 -35 -111 -155 -111 -182 0 -13 -4 -26 -9
-29 -4 -3 -7 -41 -5 -83 2 -43 5 -88 5 -100 1 -13 4 -23 8 -23 4 0 15 -18 25
-40 10 -23 36 -62 58 -88 43 -50 162 -124 185 -115 7 3 13 1 13 -4 0 -13 142
-14 161 -2 11 7 9 9 -6 10 -11 1 -24 2 -30 4 -5 1 -36 3 -69 3 -53 2 -58 4
-53 22 7 27 -10 26 -18 -1 -6 -18 -9 -19 -23 -6 -10 8 -35 24 -57 35 -67 35
-68 37 -56 61 12 21 -2 31 -14 11 -12 -20 -25 -9 -51 43 -14 28 -33 60 -42 70
-15 16 -14 18 6 24 12 3 22 9 22 13 0 5 -9 6 -20 3 -19 -5 -20 0 -20 81 0 82
1 86 23 87 l22 0 -21 11 c-22 10 -21 11 19 82 50 87 45 82 59 68 19 -19 33
-14 15 6 -16 17 -14 20 26 42 23 12 57 32 75 42 l32 20 9 -24 10 -23 0 25 c1
25 2 25 86 25 84 0 85 0 85 -25 l1 -25 12 22 c12 22 13 22 39 5 26 -17 27 -19
10 -37 -17 -19 -17 -19 5 -1 21 17 23 17 63 -7 24 -14 37 -28 31 -31 -19 -12
-13 -28 7 -17 15 8 22 1 46 -41 28 -50 28 -50 8 -70 -20 -20 -20 -20 -53 36
-29 48 -45 63 -106 96 -66 37 -78 40 -149 40 -72 0 -81 -3 -148 -41 -63 -37
-76 -50 -113 -115 -40 -68 -43 -79 -43 -146 0 -67 3 -79 43 -148 39 -69 48
-78 117 -117 41 -24 88 -43 104 -43 17 0 39 -9 51 -20 17 -16 27 -19 46 -11
l24 9 -29 7 c-40 11 -73 44 -55 56 7 4 16 4 19 -1 3 -4 16 1 29 11 13 11 21
22 17 26 -3 3 -15 -2 -26 -12 -11 -10 -20 -13 -20 -8 0 6 7 13 15 17 8 3 15
12 15 21 0 19 14 19 30 0 7 -8 16 -13 20 -10 5 3 10 1 12 -5 4 -14 46 -1 52
17 3 8 1 24 -5 35 -15 28 -1 37 20 12 17 -21 17 -21 33 -2 10 13 18 16 23 8 3
-6 -11 -27 -32 -46 -78 -73 -71 -69 -91 -51 -23 21 -39 22 -22 2 17 -20 4 -35
-31 -35 -39 0 -37 -14 3 -17 18 -2 40 4 50 14 10 9 21 13 26 9 4 -4 -6 -19
-21 -32 -52 -44 -13 -74 44 -33 16 11 34 17 40 13 8 -4 9 -3 5 4 -4 7 -1 12 6
12 29 1 105 87 141 161 36 72 38 80 34 155 -9 164 -75 270 -212 344 -52 29
-72 33 -150 37 -55 2 -97 0 -108 -7z m47 -96 c20 -8 21 -24 2 -24 -8 0 -13 -8
-11 -17 4 -31 -4 -32 -34 -4 l-29 26 27 12 c14 6 27 12 28 12 1 1 8 -2 17 -5z
m180 -34 c60 -34 73 -47 112 -115 25 -43 29 -61 30 -130 0 -51 -4 -84 -12 -92
-19 -19 -27 -16 -21 8 4 15 2 18 -7 10 -10 -8 -18 -5 -32 10 -10 11 -14 20 -9
19 55 -11 89 32 60 76 -8 13 -19 23 -23 23 -30 -5 -34 2 -14 24 26 27 20 59
-13 77 -17 9 -28 9 -44 1 -23 -13 -26 -9 -11 19 8 14 7 25 -2 40 -21 33 -47
35 -78 5 -24 -23 -28 -24 -25 -9 1 11 -4 29 -11 42 -14 21 -13 22 17 22 17 0
55 -13 83 -30z m-114 -67 c1 -76 1 -77 16 -49 l16 28 21 -21 c17 -16 19 -23 9
-33 -19 -19 -14 -29 7 -16 15 9 23 9 35 -1 11 -9 16 -10 16 -2 0 6 -4 11 -10
11 -22 0 -8 17 27 34 35 17 38 17 50 0 7 -10 13 -20 13 -24 0 -3 -27 -20 -60
-38 -33 -19 -60 -36 -60 -39 0 -3 16 -2 35 1 20 4 40 4 46 0 17 -10 -31 -54
-60 -54 -20 0 -22 -3 -12 -9 12 -8 12 -12 2 -25 -8 -9 -20 -16 -29 -16 -8 0
-12 -3 -9 -7 4 -3 0 -15 -9 -25 -13 -14 -20 -15 -31 -7 -10 9 -13 8 -13 -2 -1
-10 -4 -8 -11 4 -5 9 -15 17 -21 17 -6 0 -1 -11 12 -24 12 -14 23 -37 23 -51
0 -34 -22 -75 -40 -75 -20 0 -15 38 7 50 11 6 20 16 20 22 0 6 -9 3 -19 -6
-19 -18 -20 -17 -23 26 l-3 43 -33 -57 c-18 -32 -36 -58 -40 -58 -4 0 -16 7
-26 15 -18 14 -17 16 17 75 20 33 34 60 32 60 -3 0 -30 -16 -61 -36 -55 -35
-58 -36 -71 -18 -20 27 -13 36 53 71 l59 32 -72 1 c-73 0 -73 0 -73 28 0 26 1
27 52 24 36 -3 60 -11 76 -25 22 -20 32 -11 11 10 -9 9 1 24 38 60 l50 48 -6
63 c-4 35 -5 65 -2 67 2 3 15 5 28 5 22 0 23 -3 23 -77z m-77 -75 c-9 -10 -19
-18 -22 -18 -4 0 -22 25 -40 56 l-34 57 24 18 24 18 32 -57 c30 -52 31 -58 16
-74z m-110 103 c-3 -10 3 -31 12 -45 l17 -25 -33 16 c-33 16 -67 8 -61 -16 1
-6 -2 -11 -8 -11 -17 0 -11 -22 12 -47 21 -23 21 -23 1 -23 -11 0 -26 -7 -33
-15 -42 -51 -30 27 17 107 40 68 88 105 76 59z m291 6 c17 -12 17 -15 -4 -50
-22 -38 -23 -38 -41 -18 -23 24 -23 26 -3 56 19 29 24 30 48 12z m-272 -98
c67 -39 64 -36 44 -58 -18 -20 -19 -20 -57 5 -21 13 -43 24 -48 24 -17 0 -22
19 -11 40 6 11 13 20 15 20 2 0 28 -14 57 -31z m476 -16 c-23 -12 -23 -12 5
-13 25 0 27 -3 27 -40 0 -23 -5 -40 -11 -40 -8 0 -8 -5 1 -15 10 -12 9 -16 -4
-21 -32 -12 -43 3 -45 61 0 31 -4 61 -7 67 -3 5 2 18 12 29 17 19 19 19 31 3
11 -16 10 -20 -9 -31z m-88 -93 c0 -28 -2 -30 -41 -30 l-41 0 29 30 c15 17 34
30 40 30 8 0 13 -13 13 -30z m-460 -55 l25 5 -28 -24 c-15 -13 -27 -28 -27
-35 0 -6 -5 -11 -11 -11 -5 0 -8 4 -4 9 3 5 1 12 -5 16 -5 3 -10 20 -10 37 0
29 1 30 18 15 11 -10 28 -15 42 -12z m430 -61 c0 -13 -4 -25 -9 -28 -8 -5
-101 41 -101 50 0 2 8 13 17 23 17 20 17 20 55 -1 26 -15 38 -29 38 -44z m150
43 c0 -16 -5 -18 -27 -13 -28 6 -28 6 -6 -10 l21 -15 -41 -70 c-23 -38 -44
-69 -47 -69 -3 0 -13 7 -23 15 -18 13 -17 17 22 82 23 38 41 76 41 84 0 9 11
14 30 15 24 1 30 -3 30 -19z m-245 -83 c31 -52 24 -72 -18 -53 -34 15 -54 62
-35 83 19 23 24 20 53 -30z m140 26 c-3 -5 -10 -10 -16 -10 -5 0 -9 5 -9 10 0
6 7 10 16 10 8 0 12 -4 9 -10z m-435 -32 c34 12 36 10 14 -22 -14 -23 -14 -25
8 -41 l23 -17 -25 7 c-34 10 -48 23 -67 59 -15 29 -15 30 0 17 13 -10 24 -11
47 -3z m130 -72 c0 -8 3 -21 6 -30 9 -24 -48 -21 -70 3 -17 19 -17 19 1 15 11
-3 25 2 32 10 17 20 31 21 31 2z m278 -8 c21 -21 13 -32 -59 -77 -71 -43 -106
-52 -50 -11 19 13 31 30 31 43 0 14 11 29 28 39 33 21 35 21 50 6z"/>
<path d="M610 795 c7 -9 15 -13 17 -11 7 7 -7 26 -19 26 -6 0 -6 -6 2 -15z"/>
<path d="M610 725 c-7 -9 -8 -15 -2 -15 5 0 12 7 16 15 3 8 4 15 2 15 -2 0 -9
-7 -16 -15z"/>
<path d="M559 631 c-17 -18 -29 -40 -29 -56 0 -34 50 -85 83 -85 34 0 87 51
87 83 0 14 -12 39 -26 56 -34 41 -75 42 -115 2z m99 -13 c7 -7 12 -26 12 -43
0 -39 -16 -55 -55 -55 -39 0 -55 16 -55 55 0 17 5 36 12 43 7 7 26 12 43 12
17 0 36 -5 43 -12z"/>
<path d="M460 575 c-8 -9 -8 -15 -2 -15 12 0 26 19 19 26 -2 2 -10 -2 -17 -11z"/>
<path d="M930 600 c0 -5 5 -10 10 -10 6 0 10 5 10 10 0 6 -4 10 -10 10 -5 0
-10 -4 -10 -10z"/>
<path d="M1329 944 c-9 -11 -9 -21 -1 -39 10 -22 18 -25 64 -26 29 -1 57 -1
61 0 6 1 413 1 537 -1 8 0 40 1 70 1 71 1 52 1 365 1 265 -1 270 0 283 21 11
18 11 24 -3 39 -16 18 -49 19 -690 19 -577 -1 -676 -3 -686 -15z m139 -16 c8
-8 12 -9 12 -1 0 8 48 12 155 12 106 1 155 -2 155 -9 0 -6 5 -8 12 -4 13 8
297 14 311 7 4 -3 3 -11 -4 -19 -9 -12 -76 -14 -390 -14 -372 0 -379 0 -379
20 0 18 7 20 58 20 32 0 63 -5 70 -12z m769 -8 c-1 -18 -9 -20 -66 -20 -62 0
-64 1 -47 19 12 13 32 19 66 20 43 0 49 -2 47 -19z m47 11 c8 -12 -21 -34 -34
-26 -8 5 -8 11 1 21 13 16 25 18 33 5z m164 -3 c8 -7 12 -7 12 0 0 8 38 11
118 9 96 -2 117 -5 117 -17 0 -13 -30 -15 -202 -17 -112 0 -203 0 -203 2 0 2
3 11 6 19 5 13 20 16 73 15 36 -1 72 -6 79 -11z"/>
<path d="M1275 921 c-3 -5 -1 -12 5 -16 5 -3 10 1 10 9 0 18 -6 21 -15 7z"/>
<path d="M409 850 c-13 -10 -19 -19 -13 -20 6 0 19 9 29 20 23 26 14 26 -16 0z"/>
<path d="M349 783 c-13 -16 -12 -17 4 -4 9 7 17 15 17 17 0 8 -8 3 -21 -13z"/>
<path d="M320 756 c0 -2 7 -7 16 -10 8 -3 12 -2 9 4 -6 10 -25 14 -25 6z"/>
<path d="M1682 729 c-20 -15 -94 -200 -95 -236 0 -7 -10 -4 -25 8 -14 10 -35
19 -47 19 -18 0 -22 4 -18 20 3 11 9 20 13 20 5 0 22 21 39 47 22 33 30 56 28
78 -5 53 -10 55 -127 55 -99 0 -110 -2 -123 -21 -29 -40 -1 -89 50 -89 30 0
33 -2 24 -19 -6 -10 -26 -37 -46 -60 -38 -47 -48 -108 -21 -130 21 -17 209
-19 229 -2 11 9 17 9 22 1 4 -6 14 -9 22 -6 8 3 22 2 32 -4 21 -11 61 12 61
36 0 8 10 14 23 14 15 0 28 -11 41 -35 13 -24 23 -32 30 -25 5 5 22 10 38 10
18 0 33 8 44 25 17 26 17 26 38 6 45 -42 190 -48 234 -8 17 15 19 15 35 -3 32
-38 117 -16 117 29 0 7 5 9 10 6 6 -3 10 -15 10 -25 0 -20 23 -31 71 -32 36
-1 51 16 46 55 -4 34 -1 34 29 -2 28 -34 87 -59 130 -56 110 9 146 49 96 108
-12 13 -25 16 -61 12 -57 -7 -72 3 -77 48 -6 48 13 61 76 54 45 -6 51 -4 68
21 22 30 15 64 -15 80 -60 32 -174 12 -216 -38 l-25 -29 -16 24 c-30 45 -62
58 -140 58 -94 0 -117 -12 -115 -61 2 -60 0 -72 -16 -72 -12 0 -15 -16 -15
-84 l0 -84 -31 -6 c-44 -9 -129 -8 -129 2 0 12 43 46 65 52 11 3 21 15 23 25
2 11 18 35 35 54 30 32 30 33 5 15 -15 -10 -28 -22 -28 -26 0 -5 -18 -8 -40
-8 -44 0 -49 -6 -22 -27 15 -13 15 -13 -5 -3 -29 14 -36 27 -18 34 8 3 15 17
15 31 0 24 2 25 65 25 61 0 65 1 64 23 0 12 2 31 6 42 8 27 -25 58 -65 59 -16
1 -30 4 -30 8 0 13 -81 -1 -112 -19 -42 -24 -87 -83 -90 -115 -3 -40 -14 -25
-37 52 -22 73 -20 71 -92 84 -8 2 -25 -5 -37 -15z m-122 -22 c0 -22 -87 -100
-101 -92 -8 6 -11 4 -7 -7 4 -10 -10 -31 -39 -59 -24 -24 -49 -53 -55 -64 -15
-29 159 140 184 179 4 6 10 7 14 4 3 -4 -2 -18 -12 -31 -55 -70 -104 -137
-104 -140 0 -2 27 -1 60 1 l60 4 0 -36 0 -36 -110 0 -110 0 0 32 c0 24 15 52
60 110 64 82 70 94 43 84 -11 -4 -28 4 -50 26 -18 17 -33 27 -33 20 0 -6 9
-17 20 -24 28 -18 25 -28 -10 -28 -28 0 -30 3 -30 35 l0 35 110 0 c83 0 110
-3 110 -13z m253 -122 c24 -74 41 -135 36 -135 -12 0 -31 39 -24 50 3 6 2 10
-3 10 -13 0 -24 -29 -16 -42 4 -5 20 -16 38 -24 l31 -14 -50 3 c-46 2 -50 4
-53 30 -3 25 -7 27 -48 27 -42 0 -44 -1 -44 -30 0 -24 -4 -30 -22 -30 -21 0
-21 0 -2 23 l19 22 -26 -22 c-27 -25 -64 -31 -56 -10 2 6 24 72 48 145 l43
132 42 0 42 0 45 -135z m213 126 c-3 -5 0 -14 7 -20 10 -8 19 -7 33 5 18 15
18 15 -3 9 -14 -4 -23 -2 -23 4 0 14 30 14 50 1 37 -24 -55 -65 -110 -49 -10
3 -14 -2 -12 -13 1 -10 -4 -31 -13 -47 -9 -19 -11 -32 -5 -36 15 -9 2 -25 -20
-25 -28 0 -34 19 -14 41 9 10 14 22 10 27 -10 9 -36 -26 -36 -48 0 -31 52 -57
62 -31 2 5 16 -2 32 -16 l29 -25 -26 -26 -27 -26 -27 20 c-35 25 -63 79 -63
119 0 69 69 145 132 145 16 0 27 -4 24 -9z m199 -11 c-10 -11 -22 -20 -27 -20
-4 0 -8 9 -8 20 0 15 7 20 27 20 25 0 26 0 8 -20z m125 -10 c12 -17 31 -35 43
-41 14 -7 8 4 -18 30 -43 45 -34 56 14 15 39 -32 41 -71 6 -109 -18 -18 -23
-31 -16 -38 5 -7 18 -36 29 -64 l20 -53 -42 0 c-42 0 -43 1 -55 43 -15 49 -28
67 -48 67 -12 0 -14 -10 -11 -40 2 -22 1 -40 -1 -40 -3 0 -22 17 -43 37 -36
35 -38 41 -38 97 0 54 3 63 32 93 44 45 97 47 128 3z m314 20 c26 -9 33 -33
18 -57 -5 -9 -18 -9 -50 0 -37 10 -45 9 -69 -9 -32 -24 -42 -79 -21 -116 7
-13 11 -27 10 -32 -4 -11 28 -46 41 -46 6 0 0 11 -12 24 l-23 24 39 -1 c21 -1
48 2 60 6 19 7 23 4 29 -18 9 -36 -6 -48 -68 -53 -64 -5 -119 15 -143 52 -18
28 -36 92 -27 100 2 3 22 -14 43 -37 21 -23 38 -37 39 -32 0 6 -18 29 -40 50
-44 43 -48 59 -24 94 38 54 129 78 198 51z m-539 -32 c-10 -33 -23 -44 -36
-31 -8 8 -6 17 7 32 24 27 37 27 29 -1z m-125 -63 c-7 -9 -15 -13 -19 -10 -3
3 1 10 9 15 21 14 24 12 10 -5z m422 -65 c-6 -16 -11 -20 -16 -11 -4 6 -2 19
5 27 16 20 21 12 11 -16z m-178 -80 l39 -40 -47 0 -46 0 0 40 c0 22 3 40 8 40
4 0 24 -18 46 -40z m-354 1 c0 -6 -4 -13 -10 -16 -5 -3 -10 1 -10 9 0 9 5 16
10 16 6 0 10 -4 10 -9z"/>
<path d="M1707 679 c19 -20 20 -24 7 -73 -8 -28 -14 -52 -14 -53 0 -2 10 -3
22 -3 l21 0 -23 -25 c-41 -44 -10 -27 37 20 50 51 51 46 -16 118 -19 20 -40
37 -45 37 -6 0 -1 -9 11 -21z m66 -101 c-20 -23 -29 -15 -38 37 l-7 40 31 -29
c29 -28 30 -31 14 -48z"/>
<path d="M2270 625 c0 -39 20 -47 54 -22 28 21 13 57 -25 57 -27 0 -29 -3 -29
-35z"/>
<path d="M2350 505 c-20 -24 -6 -28 15 -5 10 11 13 20 8 20 -6 0 -16 -7 -23
-15z"/>
<path d="M2501 655 c-57 -62 -51 -69 9 -10 28 27 50 51 50 52 0 13 -24 -4 -59
-42z"/>
<path d="M1090 690 c-9 -6 -10 -10 -3 -10 6 0 15 5 18 10 8 12 4 12 -15 0z"/>
<path d="M1704 302 c6 -32 -24 -46 -54 -25 -21 15 -22 15 -11 -6 7 -13 21 -21
36 -21 14 0 25 -5 25 -11 0 -8 4 -8 13 -1 7 6 85 11 200 12 151 0 187 -2 181
-12 -6 -10 -5 -11 7 -1 12 9 89 12 305 10 249 -2 289 -4 289 -17 0 -13 -83
-15 -677 -17 -659 -1 -678 -1 -678 18 0 17 9 19 132 18 80 0 137 -4 145 -11
20 -17 26 -3 7 16 -13 14 -34 17 -98 16 -44 0 -103 -1 -131 -1 -27 0 -55 -5
-62 -11 -17 -13 -17 -43 0 -56 8 -7 230 -10 685 -10 670 0 672 0 687 21 13 18
13 23 -1 38 -16 18 -84 31 -84 17 0 -5 -12 -5 -27 -2 -15 4 -43 7 -62 6 -52 0
-413 -1 -431 -1 -8 1 -85 1 -170 0 -85 0 -162 0 -170 1 -8 0 -24 -3 -34 -8
-15 -6 -18 -4 -14 7 3 8 1 23 -4 34 -8 18 -8 18 -4 -3z"/>
<path d="M456 289 c19 -21 54 -44 54 -35 0 9 -54 56 -64 56 -5 0 -1 -9 10 -21z"/>
</g>
</svg>
